#!OML:ASF G:\JayActor3\Patient Classification 1\Patient 1\Session 5\male.ASF
:FULLY-SPECIFIED
:DEGREES
1213
root 29.7808 16.6582 9.7072 -369.027 47.6021 -366.724
lowerback 7.50414 -0.166452 3.72437
upperback 0.59626 0.0974096 -0.0827849
thorax -3.58637 -0.00534121 -2.18996
lowerneck 1.01419 1.01803 4.85634
upperneck 2.18809 1.38707 0.68698
head 0.529853 0.740733 -0.585885
rclavicle 3.23739e-014 -2.78299e-015
rhumerus -41.5406 -14.2317 -80.8393
rradius 21.6281
rwrist 13.477
rhand -19.1172 -9.98006
rfingers 7.12502
rthumb 7.19201 -39.8378
lclavicle 3.23739e-014 -2.78299e-015
lhumerus -33.6715 26.4965 71.1778
lradius 6.99964
lwrist -2.89167
lhand -23.1292 14.8611
lfingers 7.12502
lthumb 3.31832 44.815
rfemur -64.6737 7.41097 33.1368
rtibia 140.895
rfoot -16.3165 -13.5892
rtoes -14.4087
lfemur 20.3179 12.4058 -17.6703
ltibia -1.59028e-014
lfoot -11.9769 -1.5159
ltoes -4.17548
1214
root 29.8148 16.6529 9.75397 -369.026 47.6041 -366.729
lowerback 7.51102 -0.165159 3.70656
upperback 0.607968 0.0973492 -0.0935324
thorax -3.57807 -0.00482586 -2.19109
lowerneck 1.01571 1.00872 4.8368
upperneck 2.21964 1.37385 0.709826
head 0.538611 0.73479 -0.575525
rclavicle -1.71856e-014 3.57812e-015
rhumerus -41.5144 -14.1914 -80.8897
rradius 21.6235
rwrist 13.4783
rhand -19.1109 -9.97895
rfingers 7.12502
rthumb 7.19815 -39.8365
lclavicle -1.71856e-014 3.57812e-015
lhumerus -33.6282 26.4468 71.2369
lradius 7.00822
lwrist -2.90286
lhand -23.1955 14.8427
lfingers 7.12502
lthumb 3.25433 44.7976
rfemur -64.634 7.42824 33.2152
rtibia 140.819
rfoot -16.4226 -13.7069
rtoes -14.3872
lfemur 20.5257 12.3384 -17.5967
ltibia 4.45278e-014
lfoot -11.9679 -1.44999
ltoes -4.26773
1215
root 29.8491 16.6479 9.80137 -369.029 47.6095 -366.75
lowerback 7.50729 -0.166659 3.69762
upperback 0.619429 0.0939333 -0.102344
thorax -3.56429 -0.00600501 -2.19481
lowerneck 1.02067 1.00001 4.81603
upperneck 2.25622 1.36151 0.734762
head 0.548338 0.72939 -0.56432
rclavicle 5.89707e-014 -2.78299e-015
rhumerus -41.4822 -14.1685 -80.9318
rradius 21.6106
rwrist 13.497
rhand -19.1088 -9.97397
rfingers 7.12502
rthumb 7.20012 -39.8315
lclavicle 5.89707e-014 -2.78299e-015
lhumerus -33.5808 26.4019 71.2968
lradius 7.01703
lwrist -2.92737
lhand -23.2629 14.8318
lfingers 7.12502
lthumb 3.18924 44.7877
rfemur -64.5892 7.44227 33.3071
rtibia 140.718
rfoot -16.581 -13.835
rtoes -14.3164
lfemur 20.725 12.2657 -17.513
ltibia -9.54166e-015
lfoot -11.957 -1.38908
ltoes -4.32793
1216
root 29.8836 16.6429 9.84944 -369.033 47.6156 -366.787
lowerback 7.48857 -0.169337 3.69997
upperback 0.630731 0.0893177 -0.109361
thorax -3.54236 -0.0077953 -2.20285
lowerneck 1.02161 0.9889 4.79346
upperneck 2.30244 1.34551 0.761752
head 0.561586 0.72238 -0.552168
rclavicle 2.70037e-014 -8.74653e-015
rhumerus -41.4459 -14.15 -80.975
rradius 21.6013
rwrist 13.5066
rhand -19.1103 -9.97807
rfingers 7.12502
rthumb 7.1987 -39.8356
lclavicle 2.70037e-014 -8.74653e-015
lhumerus -33.5257 26.3601 71.359
lradius 7.02912
lwrist -2.95003
lhand -23.316 14.8221
lfingers 7.12502
lthumb 3.13793 44.7787
rfemur -64.5463 7.46122 33.4155
rtibia 140.588
rfoot -16.7906 -13.9894
rtoes -14.2606
lfemur 20.914 12.1907 -17.4202
ltibia -6.36111e-015
lfoot -11.9459 -1.32544
ltoes -4.37252
1217
root 29.9184 16.6375 9.89805 -369.024 47.6284 -366.825
lowerback 7.45544 -0.174519 3.70316
upperback 0.639051 0.0808661 -0.115767
thorax -3.51571 -0.0114706 -2.21029
lowerneck 1.02219 0.97604 4.76684
upperneck 2.3564 1.32698 0.788911
head 0.577197 0.714237 -0.539295
rclavicle 5.18083e-015 -1.39149e-014
rhumerus -41.4099 -14.1423 -81.0106
rradius 21.5952
rwrist 13.5141
rhand -19.12 -9.97868
rfingers 7.12502
rthumb 7.18933 -39.8366
lclavicle 5.18083e-015 -1.39149e-014
lhumerus -33.4655 26.3229 71.4237
lradius 7.0409
lwrist -2.96625
lhand -23.3463 14.823
lfingers 7.12502
lthumb 3.10863 44.7801
rfemur -64.5127 7.464 33.5219
rtibia 140.431
rfoot -17.0597 -14.1739
rtoes -14.1282
lfemur 21.091 12.1097 -17.3329
ltibia 2.8625e-014
lfoot -11.9335 -1.2478
ltoes -4.44924
1218
root 29.9533 16.6316 9.94714 -368.999 47.643 -366.854
lowerback 7.41182 -0.179146 3.70075
upperback 0.645155 0.0722051 -0.12334
thorax -3.48551 -0.0151564 -2.21575
lowerneck 1.02098 0.9613 4.73684
upperneck 2.41881 1.30568 0.815051
head 0.595634 0.70485 -0.526178
rclavicle 7.18731e-015 0
rhumerus -41.3769 -14.133 -81.0462
rradius 21.6012
rwrist 13.5008
rhand -19.1364 -9.97643
rfingers 7.12502
rthumb 7.17348 -39.8349
lclavicle 7.18731e-015 0
lhumerus -33.3976 26.2886 71.4937
lradius 7.05285
lwrist -2.97495
lhand -23.3577 14.8263
lfingers 7.12502
lthumb 3.09762 44.7835
rfemur -64.4917 7.44579 33.6151
rtibia 140.237
rfoot -17.3884 -14.3939
rtoes -13.9664
lfemur 21.2593 12.0287 -17.2579
ltibia -3.18055e-015
lfoot -11.9143 -1.15456
ltoes -4.56598
1219
root 29.9883 16.6255 9.99666 -368.947 47.6595 -366.858
lowerback 7.36546 -0.184552 3.68042
upperback 0.649544 0.0607606 -0.135421
thorax -3.45575 -0.0200435 -2.21552
lowerneck 1.00422 0.946599 4.71842
upperneck 2.50021 1.28341 0.827747
head 0.622721 0.695434 -0.5191
rclavicle 5.72003e-014 7.55382e-015
rhumerus -41.3453 -14.1324 -81.0751
rradius 21.6106
rwrist 13.4843
rhand -19.1599 -9.96358
rfingers 7.12502
rthumb 7.15078 -39.8228
lclavicle 5.72003e-014 7.55382e-015
lhumerus -33.3255 26.2614 71.5631
lradius 7.06798
lwrist -2.9766
lhand -23.3465 14.8237
lfingers 7.12502
lthumb 3.10849 44.7807
rfemur -64.4814 7.39012 33.6767
rtibia 139.997
rfoot -17.7818 -14.6382
rtoes -13.7993
lfemur 21.4225 11.9494 -17.207
ltibia -6.36111e-015
lfoot -11.8854 -1.04309
ltoes -4.73458
1220
root 30.0236 16.6199 10.0466 -368.876 47.6765 -366.84
lowerback 7.32286 -0.19172 3.64552
upperback 0.653509 0.0458152 -0.151611
thorax -3.42875 -0.0265559 -2.21102
lowerneck 0.972267 0.934883 4.7057
upperneck 2.59548 1.26408 0.836734
head 0.656772 0.687837 -0.514069
rclavicle -5.602e-014 7.95139e-016
rhumerus -41.3139 -14.1201 -81.1101
rradius 21.6267
rwrist 13.4462
rhand -19.1867 -9.95205
rfingers 7.12502
rthumb 7.12496 -39.8121
lclavicle -5.602e-014 7.95139e-016
lhumerus -33.2508 26.2432 71.6302
lradius 7.08753
lwrist -2.98326
lhand -23.3252 14.8109
lfingers 7.12502
lthumb 3.12901 44.7677
rfemur -64.4742 7.28695 33.7014
rtibia 139.689
rfoot -18.2246 -14.8902
rtoes -13.6217
lfemur 21.5833 11.8729 -17.1776
ltibia -3.81667e-014
lfoot -11.8249 -0.912638
ltoes -4.95666
1221
root 30.0591 16.6151 10.0969 -368.776 47.7007 -366.781
lowerback 7.28964 -0.201231 3.58356
upperback 0.660831 0.0256237 -0.176489
thorax -3.40385 -0.0353411 -2.1998
lowerneck 0.93108 0.927329 4.69779
upperneck 2.69347 1.24971 0.846317
head 0.693379 0.682861 -0.509628
rclavicle -1.06499e-013 1.70955e-014
rhumerus -41.2776 -14.1173 -81.1411
rradius 21.6384
rwrist 13.4154
rhand -19.2126 -9.93761
rfingers 7.12502
rthumb 7.09997 -39.7985
lclavicle -1.06499e-013 1.70955e-014
lhumerus -33.1738 26.2318 71.696
lradius 7.12043
lwrist -2.99823
lhand -23.2953 14.7885
lfingers 7.12502
lthumb 3.15794 44.7449
rfemur -64.4558 7.11017 33.6618
rtibia 139.294
rfoot -18.7073 -15.1205
rtoes -13.4633
lfemur 21.745 11.7941 -17.1822
ltibia 5.08889e-014
lfoot -11.7455 -0.770054
ltoes -5.21117
1222
root 30.0945 16.611 10.1475 -368.646 47.7316 -366.675
lowerback 7.26989 -0.212128 3.4883
upperback 0.672588 0.00113749 -0.210081
thorax -3.38213 -0.0458463 -2.17849
lowerneck 0.868196 0.920716 4.70185
upperneck 2.80213 1.23534 0.845732
head 0.737155 0.678198 -0.510282
rclavicle -1.37845e-014 2.78299e-015
rhumerus -41.2372 -14.1086 -81.1768
rradius 21.6522
rwrist 13.3791
rhand -19.2359 -9.93726
rfingers 7.12502
rthumb 7.07749 -39.7989
lclavicle -1.37845e-014 2.78299e-015
lhumerus -33.1018 26.2249 71.7595
lradius 7.18094
lwrist -3.02203
lhand -23.2542 14.7606
lfingers 7.12502
lthumb 3.19766 44.7164
rfemur -64.4218 6.86456 33.5497
rtibia 138.794
rfoot -19.2036 -15.3075
rtoes -13.2982
lfemur 21.909 11.714 -17.2236
ltibia -4.45278e-014
lfoot -11.6445 -0.620685
ltoes -5.4763
